<?xml version="1.0" encoding="iso-8859-1"?>
<!-- Generator: Adobe Illustrator 16.0.0, SVG Export Plug-In . SVG Version: 6.00 Build 0)  -->
<!DOCTYPE svg PUBLIC "-//W3C//DTD SVG 1.1//EN" "http://www.w3.org/Graphics/SVG/1.1/DTD/svg11.dtd">
<svg version="1.1" id="Capa_1" xmlns="http://www.w3.org/2000/svg" xmlns:xlink="http://www.w3.org/1999/xlink" x="0px" y="0px"
	 width="945.469px" height="945.469px" viewBox="0 0 945.469 945.469" style="enable-background:new 0 0 945.469 945.469;"
	 xml:space="preserve">
<g>
	<path d="M38.348,944.29l183.3-60.1c6.7-2.2,12.8-5.9,17.7-10.9l429.6-432.1l-171.101-171.2l-428.5,431
		c-5.6,5.7-9.6,12.8-11.6,20.601l-49.2,195C4.148,934.091,21.148,949.99,38.348,944.29z"/>
	<path d="M921.748,102.49l-86.601-86.6c-20.899-20.9-63.3-21.2-83.8-0.8l-211.2,212.4l171.2,171.2l66.5-66.9l32.4,32.6
		c7.8,7.8,7.7,20.5,0,28.3l-52.5,52.4l-42.5,42.399l-177.9,177.4c-15.6,15.6-15.7,40.899-0.1,56.6c7.8,7.8,18.1,11.7,28.3,11.7
		s20.4-3.9,28.3-11.7l272.9-272.3c39-38.9,39.1-102.3,0.2-141.3l-32.7-32.9l88.2-88.7
		C942.948,165.791,942.647,123.391,921.748,102.49z"/>
</g>
<g>
</g>
<g>
</g>
<g>
</g>
<g>
</g>
<g>
</g>
<g>
</g>
<g>
</g>
<g>
</g>
<g>
</g>
<g>
</g>
<g>
</g>
<g>
</g>
<g>
</g>
<g>
</g>
<g>
</g>
</svg>
